<svg xmlns="http://www.w3.org/2000/svg" viewBox="0 0 86 85.98"><defs><style>.a{fill:#dac27c;}</style></defs><path class="a" d="M42.935,52.771A22.044,22.044,0,1,0,64.979,74.815,22.009,22.009,0,0,0,42.935,52.771Zm0,36.376A14.332,14.332,0,1,1,57.266,74.815,14.358,14.358,0,0,1,42.935,89.147ZM71.022,51.869a5.142,5.142,0,1,1-5.142-5.142A5.13,5.13,0,0,1,71.022,51.869Zm14.6,5.219C85.3,50.2,83.723,44.1,78.678,39.072c-5.027-5.027-11.128-6.6-18.015-6.945-7.1-.4-28.376-.4-35.474,0-6.868.326-12.97,1.9-18.015,6.926S.573,50.181.227,57.069c-.4,7.1-.4,28.376,0,35.474.326,6.888,1.9,12.989,6.945,18.015s11.128,6.6,18.015,6.945c7.1.4,28.376.4,35.474,0,6.888-.326,12.989-1.9,18.015-6.945,5.027-5.027,6.6-11.128,6.945-18.015C86.026,85.444,86.026,64.187,85.623,57.088ZM76.452,100.16a14.51,14.51,0,0,1-8.173,8.173c-5.66,2.245-19.09,1.727-25.344,1.727s-19.7.5-25.344-1.727a14.51,14.51,0,0,1-8.173-8.173C7.172,94.5,7.69,81.07,7.69,74.815s-.5-19.7,1.727-25.344A14.51,14.51,0,0,1,17.59,41.3c5.66-2.245,19.09-1.727,25.344-1.727s19.7-.5,25.344,1.727a14.51,14.51,0,0,1,8.173,8.173c2.245,5.66,1.727,19.09,1.727,25.344S78.7,94.519,76.452,100.16Z" transform="translate(0.075 -31.825)"/></svg>