<svg xmlns="http://www.w3.org/2000/svg" xmlns:xlink="http://www.w3.org/1999/xlink" viewBox="0 0 357.42 587.156"><defs><style>.a{fill:none;stroke:#dac27c;stroke-width:8px;}.b{filter:url(#a);}</style><filter id="a" x="0" y="0" width="357.42" height="587.156" filterUnits="userSpaceOnUse"><feOffset input="SourceAlpha"/><feGaussianBlur stdDeviation="10" result="b"/><feFlood flood-opacity="0.251"/><feComposite operator="in" in2="b"/><feComposite in="SourceGraphic"/></filter></defs><g class="b" transform="matrix(1, 0, 0, 1, 0, 0)"><path class="a" d="M127.737,257.293c20.879,2.618,42.665,16.563,48.126,20.983A115.676,115.676,0,0,1,192.9,296.394a83.1,83.1,0,0,1,14.985,32.051c6.115,23.507,4.568,50.014-6.652,71.362-12.185,23.851-32.89,43.512-57.428,48.518-4.905-.639-16.76,5.684-16.468-2.014C127.388,384.48,128.929,242.13,127.737,257.293Zm0-81.431a111.658,111.658,0,0,1,56.147,11.451c20.645,7.615,38.368,22.015,54.081,38.482,17.15,15.835,28.751,38.006,37.6,60.506a177.622,177.622,0,0,1,11.883,64.038c3.272,51.794-18.465,102.853-52.425,137.311-25.139,26.749-58.608,44.77-93.506,46.616-6.11-.8-17.3,4.185-14.253-7.041q.18-175.725.473-351.363Zm-.063-41.613q-.087-39.152-.174-78.3c25.341.449,50.8-.363,76.067.869,14.723,5.05,23.27,21.132,34.539,31.906,11.5,13.255,23.959,25.791,34.874,39.488,1.191,2.005,1,4.141.962,6.429m-146.268-.388c75.881.442,151.838.154,227.672,1.053,15.888,2.7,30.432,12.2,41.625,24.87,10.808,13.756,18.524,31.715,19.1,50.11-.088,97.852.393,195.745.072,293.574-1.989,16.611-9.521,32.462-19.411,44.887-14.64,16.138-34.919,27.589-55.917,25.233L127.011,575.01q.332-220.38.663-440.762Z" transform="translate(-92.73 -21.87)"/></g></svg>