<svg xmlns="http://www.w3.org/2000/svg" xmlns:xlink="http://www.w3.org/1999/xlink" viewBox="0 0 427.803 579.239"><defs><style>.a{fill:#dac27c;}.b{filter:url(#a);}</style><filter id="a" x="0" y="0" width="427.803" height="579.239" filterUnits="userSpaceOnUse"><feOffset input="SourceAlpha"/><feGaussianBlur stdDeviation="10" result="b"/><feFlood flood-opacity="0.251"/><feComposite operator="in" in2="b"/><feComposite in="SourceGraphic"/></filter></defs><g class="b" transform="matrix(1, 0, 0, 1, 0, 0)"><path class="a" d="M132.494,30.942c27.1.866,53.3,10.32,77.809,21.206C236.335,65.112,261.639,85,269.333,113.926c12.7,37.366,5.448,78.489,20.707,115.252,14.611,41.566,45.116,74.675,73.843,107.375,22.313,26.414,44.983,53.572,58.7,85.426,2.144,7.443,4,15.043,4.485,22.785,15.434-8.56,27.057-24.673,25.157-42.68.856-20.7-13.5-37.941-24.18-54.57-19.061-27.439-41.523-53.007-54.1-84.258-8.248-18.626-12.188-38.926-9.9-59.209,1.185-35.1,20.98-68.969,51.5-87.363A110.6,110.6,0,0,1,467.3,102.5c.065,16.361-.509,31.618-.444,47.98-12.21-1.045-24.3.915-34.106,8.921a52.491,52.491,0,0,0-22.97,51.976c2.767,26.879,18.626,49.579,34.566,70.665,7.08,11.144,17.34,20.824,23.111,32.4q.1,79.772.192,159.543c-12.312,13.571-27.659,23.944-44.491,31.344-11.3,5.426-17.044,16.594-21.234,27.6-6.3,14.044-23,18.695-37.4,16.881H208.4c-1.728-12.659,7.213-23.1,18.53-27.823,10.186-2.988-6.156-9.177-9.445-12.778-5.891-2.458-7.835,11.99-12.165,16.215L191.7,550H144.9c1.861-10.185,9.2-18.966,12.439-28.99,14.432-31.133,27.5-64.036,26.731-98.832,2.062-21.715-3.324-42.975-11.013-63.167-11.683-30.625-22.183-63.2-17.772-96.289,2.921-22.664,11.761-44.036,17.19-66.049-21.358,4.13-45.386.709-61.07-15.274-4.42-5.16-15.871-9.492-9.848-17.2,8.845-21.642,16.151-43.885,25.476-65.31,6.338-8.206,14.755-14.334,23.5-19.863-6.02-15.916-12.021-32.166-18.041-48.082Z" transform="translate(-69.85 -0.94)"/></g></svg>