<?xml version="1.0" encoding="UTF-8" standalone="no"?>
<svg
   xmlns:dc="http://purl.org/dc/elements/1.1/"
   xmlns:cc="http://creativecommons.org/ns#"
   xmlns:rdf="http://www.w3.org/1999/02/22-rdf-syntax-ns#"
   xmlns:svg="http://www.w3.org/2000/svg"
   xmlns="http://www.w3.org/2000/svg"
   height="57.317425"
   width="78.038223"
   id="svg26"
   version="1.1"
   viewBox="0 0 78.03822 57.317425">
  <metadata
     id="metadata30">
    <rdf:RDF>
      <cc:Work
         rdf:about="">
        <dc:format>image/svg+xml</dc:format>
        <dc:type
           rdf:resource="http://purl.org/dc/dcmitype/StillImage" />
        <dc:title></dc:title>
      </cc:Work>
    </rdf:RDF>
  </metadata>
  <defs
     id="defs4">
    <style
       id="style2">.a,.c{fill:#dac27c;}.a,.b{font-size:30px;letter-spacing:0.01em;}.a{font-family:SegoeUIBlack, Segoe UI;}.b{font-family:SegoeUI-Bold, Segoe UI;font-weight:700;}.d{fill:none;stroke:#dac27c;stroke-width:2px;}</style>
  </defs>
  <g
     id="g24"
     transform="translate(-79.891007,-38.895916)">
    <g
       id="g14"
       transform="translate(32)" />
    <g
       id="g3747">
      <g
         id="text12"
         style="font-weight:700;font-size:30px;font-family:SegoeUI-Bold, 'Segoe UI';letter-spacing:0.01em"
         transform="translate(171,92)"
         aria-label="fotobudka" />
      <g
         transform="translate(-641,-394)"
         id="g22">
        <path
           class="c"
           d="m 103.318,31.3 a 22.149,22.149 0 0 1 8.275,2.256 c 2.768,1.4 5.458,3.552 6.276,6.679 1.351,4.04 0.579,8.485 2.2,12.46 1.553,4.494 4.8,8.073 7.851,11.608 2.372,2.856 4.783,5.792 6.241,9.235 a 11.762,11.762 0 0 1 0.479,2.462 4.9,4.9 0 0 0 2.675,-4.614 c 0.091,-2.238 -1.436,-4.1 -2.571,-5.9 -2.027,-2.966 -4.415,-5.731 -5.752,-9.109 a 12.582,12.582 0 0 1 -1.053,-6.4 11.207,11.207 0 0 1 10.975,-11.018 q 0.01,2.653 0.021,5.306 a 4.937,4.937 0 0 0 -3.69,0.885 5.714,5.714 0 0 0 -2.442,5.619 c 0.294,2.906 1.98,5.36 3.675,7.64 0.753,1.2 1.844,2.251 2.457,3.5 q 0.01,8.624 0.02,17.248 a 13.881,13.881 0 0 1 -4.73,3.389 5.009,5.009 0 0 0 -2.258,2.984 3.688,3.688 0 0 1 -3.977,1.825 h -16.6 a 2.949,2.949 0 0 1 1.97,-3.008 c 1.083,-0.323 -0.655,-0.992 -1,-1.381 -0.626,-0.266 -0.833,1.3 -1.293,1.753 l -1.448,2.657 h -4.976 c 0.2,-1.1 0.978,-2.05 1.323,-3.134 1.534,-3.366 2.924,-6.923 2.842,-10.685 a 15.442,15.442 0 0 0 -1.171,-6.829 c -1.242,-3.311 -2.359,-6.833 -1.89,-10.41 a 65.725,65.725 0 0 1 1.828,-7.14 7.055,7.055 0 0 1 -6.493,-1.651 c -0.47,-0.558 -1.687,-1.026 -1.047,-1.86 0.94,-2.34 1.717,-4.744 2.709,-7.061 a 9.441,9.441 0 0 1 2.5,-2.147 l -1.92,-5.162 z"
           transform="translate(621.038,401.702)"
           id="path16"
           style="fill:#dac27c" />
        <g
           transform="translate(768.478,452.913)"
           id="g20">
          <path
             class="d"
             d="m 126.866,77.395 a 14.468,14.468 0 0 1 5.727,2.235 13.016,13.016 0 0 1 2.027,1.93 8.478,8.478 0 0 1 1.783,3.414 9.77,9.77 0 0 1 -0.792,7.6 10.3,10.3 0 0 1 -6.834,5.169 c -0.584,-0.068 -1.994,0.606 -1.96,-0.215 0.007,-6.584 0.19,-21.748 0.049,-20.133 z m 0,-8.675 a 14.621,14.621 0 0 1 6.682,1.22 17.682,17.682 0 0 1 6.436,4.1 18.532,18.532 0 0 1 5.888,13.267 18.462,18.462 0 0 1 -6.239,14.628 17.634,17.634 0 0 1 -11.127,4.966 c -0.727,-0.085 -2.059,0.446 -1.7,-0.75 q 0.021,-18.72 0.056,-37.43 z m -0.008,-4.433 q -0.01,-4.171 -0.021,-8.342 c 3.016,0.048 6.045,-0.039 9.052,0.093 1.752,0.538 2.769,2.251 4.11,3.4 1.369,1.412 2.851,2.747 4.15,4.207 a 1.1,1.1 0 0 1 0.115,0.685 m -17.406,-0.041 c 9.03,0.047 18.069,0.016 27.093,0.112 a 8.986,8.986 0 0 1 4.953,2.649 8.789,8.789 0 0 1 2.273,5.338 c -0.01,10.424 0.047,20.852 0.009,31.274 a 9.227,9.227 0 0 1 -2.31,4.782 8.531,8.531 0 0 1 -6.654,2.688 l -25.443,0.11 0.079,-46.954 z"
             transform="translate(-131.748,-74.946)"
             id="path18"
             style="fill:none;stroke:#dac27c;stroke-width:2px" />
        </g>
      </g>
    </g>
  </g>
</svg>
