<svg xmlns="http://www.w3.org/2000/svg" viewBox="0 0 58.583 35"><defs><style>.a{fill:#dac27c;}</style></defs><path class="a" d="M29.354,64c-40.514,0-32.731,35-14.5,35a11.294,11.294,0,0,0,9.284-5.091l2.355-3.444a3.4,3.4,0,0,1,5.733,0l2.355,3.444A11.291,11.291,0,0,0,43.859,99c17.379,0,26.6-35-14.5-35ZM16.844,86.272a9.49,9.49,0,0,1-7.33-3.742,1.661,1.661,0,0,1,0-2.063,9.485,9.485,0,0,1,7.33-3.742,9.488,9.488,0,0,1,7.33,3.742,1.661,1.661,0,0,1,0,2.063,9.487,9.487,0,0,1-7.33,3.742Zm24.9,0a9.49,9.49,0,0,1-7.33-3.742,1.661,1.661,0,0,1,0-2.063,9.485,9.485,0,0,1,7.33-3.742,9.488,9.488,0,0,1,7.33,3.742,1.661,1.661,0,0,1,0,2.063A9.487,9.487,0,0,1,41.741,86.272Z" transform="translate(-0.001 -64)"/></svg>