<svg xmlns="http://www.w3.org/2000/svg" viewBox="0 0 45.001 35"><path d="M37.5,62v1.25A3.75,3.75,0,0,1,33.751,67h-30A3.75,3.75,0,0,1,0,63.25v-20A3.75,3.75,0,0,1,3.75,39.5H5V55.75A6.257,6.257,0,0,0,11.25,62ZM45,55.75v-20A3.75,3.75,0,0,0,41.251,32h-30A3.75,3.75,0,0,0,7.5,35.75v20a3.75,3.75,0,0,0,3.75,3.75h30A3.75,3.75,0,0,0,45,55.75ZM20,39.5a3.75,3.75,0,1,1-3.75-3.75A3.75,3.75,0,0,1,20,39.5ZM12.5,50.75l4.337-4.337a.938.938,0,0,1,1.326,0L21.251,49.5,31.838,38.913a.938.938,0,0,1,1.326,0L40,45.75V54.5H12.5Z" transform="translate(0 -32)"/></svg>