<svg xmlns="http://www.w3.org/2000/svg" viewBox="0 0 197 137.104"><defs><style>.a,.c{fill:#dac27c;}.b{fill:none;stroke:#dac27c;stroke-width:2px;}.c,.d{font-size:30px;letter-spacing:0.01em;}.c{font-family:SegoeUIBlack, Segoe UI;}.d{font-family:SegoeUI-Bold, Segoe UI;font-weight:700;}</style></defs><g transform="translate(-608 -7836.896)"><g transform="translate(-53.887 7404)"><path class="a" d="M103.318,31.3a22.149,22.149,0,0,1,8.275,2.256c2.768,1.4,5.458,3.552,6.276,6.679,1.351,4.04.579,8.485,2.2,12.46,1.553,4.494,4.8,8.073,7.851,11.608,2.372,2.856,4.783,5.792,6.241,9.235A11.762,11.762,0,0,1,134.64,76a4.9,4.9,0,0,0,2.675-4.614c.091-2.238-1.436-4.1-2.571-5.9-2.027-2.966-4.415-5.731-5.752-9.109a12.582,12.582,0,0,1-1.053-6.4,11.207,11.207,0,0,1,10.975-11.018q.01,2.653.021,5.306a4.937,4.937,0,0,0-3.69.885,5.714,5.714,0,0,0-2.442,5.619c.294,2.906,1.98,5.36,3.675,7.64.753,1.2,1.844,2.251,2.457,3.5q.01,8.624.02,17.248a13.881,13.881,0,0,1-4.73,3.389,5.009,5.009,0,0,0-2.258,2.984,3.688,3.688,0,0,1-3.977,1.825h-16.6a2.949,2.949,0,0,1,1.97-3.008c1.083-.323-.655-.992-1-1.381-.626-.266-.833,1.3-1.293,1.753l-1.448,2.657h-4.976c.2-1.1.978-2.05,1.323-3.134,1.534-3.366,2.924-6.923,2.842-10.685a15.442,15.442,0,0,0-1.171-6.829c-1.242-3.311-2.359-6.833-1.89-10.41a65.725,65.725,0,0,1,1.828-7.14,7.055,7.055,0,0,1-6.493-1.651c-.47-.558-1.687-1.026-1.047-1.86.94-2.34,1.717-4.744,2.709-7.061a9.441,9.441,0,0,1,2.5-2.147l-1.92-5.162Z" transform="translate(621.038 401.702)"/><g transform="translate(768.478 452.913)"><path class="b" d="M126.866,77.395a14.468,14.468,0,0,1,5.727,2.235,13.016,13.016,0,0,1,2.027,1.93,8.478,8.478,0,0,1,1.783,3.414,9.77,9.77,0,0,1-.792,7.6,10.3,10.3,0,0,1-6.834,5.169c-.584-.068-1.994.606-1.96-.215C126.824,90.944,127.007,75.78,126.866,77.395Zm0-8.675a14.621,14.621,0,0,1,6.682,1.22,17.682,17.682,0,0,1,6.436,4.1,18.532,18.532,0,0,1,5.888,13.267,18.462,18.462,0,0,1-6.239,14.628,17.634,17.634,0,0,1-11.127,4.966c-.727-.085-2.059.446-1.7-.75q.021-18.72.056-37.43Zm-.008-4.433q-.01-4.171-.021-8.342c3.016.048,6.045-.039,9.052.093,1.752.538,2.769,2.251,4.11,3.4,1.369,1.412,2.851,2.747,4.15,4.207a1.1,1.1,0,0,1,.115.685m-17.406-.041c9.03.047,18.069.016,27.093.112a8.986,8.986,0,0,1,4.953,2.649,8.789,8.789,0,0,1,2.273,5.338c-.01,10.424.047,20.852.009,31.274a9.227,9.227,0,0,1-2.31,4.782,8.531,8.531,0,0,1-6.654,2.688l-25.443.11.079-46.954Z" transform="translate(-131.748 -74.946)"/></g></g><g transform="translate(469 7874)"><text class="c" transform="translate(139 65)"><tspan x="0" y="0">GOLDEN CAT</tspan></text><text class="d" transform="translate(162 92)"><tspan x="0" y="0">fotobudka</tspan></text></g></g></svg>