<svg xmlns="http://www.w3.org/2000/svg" xmlns:xlink="http://www.w3.org/1999/xlink" viewBox="0 0 732.515 545.156"><defs><style>.a{fill:none;stroke:#dac27c;stroke-width:8px;}.b{fill:#dac27c;}.c{filter:url(#c);}.d{filter:url(#a);}</style><filter id="a" x="375.095" y="0" width="357.42" height="587.156" filterUnits="userSpaceOnUse"><feOffset input="SourceAlpha"/><feGaussianBlur stdDeviation="10" result="b"/><feFlood flood-opacity="0.251"/><feComposite operator="in" in2="b"/><feComposite in="SourceGraphic"/></filter><filter id="c" x="0" y="4.072" width="427.803" height="579.239" filterUnits="userSpaceOnUse"><feOffset input="SourceAlpha"/><feGaussianBlur stdDeviation="10" result="d"/><feFlood flood-opacity="0.251"/><feComposite operator="in" in2="d"/><feComposite in="SourceGraphic"/></filter></defs><g transform="translate(-1104.376 -236.373)"><g transform="translate(1513.49 270.445)"><g class="d" transform="matrix(1, 0, 0, 1, -409.11, -34.07)"><path class="a" d="M127.737,257.293c20.879,2.618,42.665,16.563,48.126,20.983A115.676,115.676,0,0,1,192.9,296.394a83.1,83.1,0,0,1,14.985,32.051c6.115,23.507,4.568,50.014-6.652,71.362-12.185,23.851-32.89,43.512-57.428,48.518-4.905-.639-16.76,5.684-16.468-2.014C127.388,384.48,128.929,242.13,127.737,257.293Zm0-81.431a111.658,111.658,0,0,1,56.147,11.451c20.645,7.615,38.368,22.015,54.081,38.482,17.15,15.835,28.751,38.006,37.6,60.506a177.622,177.622,0,0,1,11.883,64.038c3.272,51.794-18.465,102.853-52.425,137.311-25.139,26.749-58.608,44.77-93.506,46.616-6.11-.8-17.3,4.185-14.253-7.041q.18-175.725.473-351.363Zm-.063-41.613q-.087-39.152-.174-78.3c25.341.449,50.8-.363,76.067.869,14.723,5.05,23.27,21.132,34.539,31.906,11.5,13.255,23.959,25.791,34.874,39.488,1.191,2.005,1,4.141.962,6.429m-146.268-.388c75.881.442,151.838.154,227.672,1.053,15.888,2.7,30.432,12.2,41.625,24.87,10.808,13.756,18.524,31.715,19.1,50.11-.088,97.852.393,195.745.072,293.574-1.989,16.611-9.521,32.462-19.411,44.887-14.64,16.138-34.919,27.589-55.917,25.233L127.011,575.01q.332-220.38.663-440.762Z" transform="translate(282.37 -21.87)"/></g></g><g transform="translate(1134.376 273.445)"><g class="c" transform="matrix(1, 0, 0, 1, -30, -34.07)"><path class="b" d="M132.494,30.942c27.1.866,53.3,10.32,77.809,21.206C236.335,65.112,261.639,85,269.333,113.926c12.7,37.366,5.448,78.489,20.707,115.252,14.611,41.566,45.116,74.675,73.843,107.375,22.313,26.414,44.983,53.572,58.7,85.426,2.144,7.443,4,15.043,4.485,22.785,15.434-8.56,27.057-24.673,25.157-42.68.856-20.7-13.5-37.941-24.18-54.57-19.061-27.439-41.523-53.007-54.1-84.258-8.248-18.626-12.188-38.926-9.9-59.209,1.185-35.1,20.98-68.969,51.5-87.363A110.6,110.6,0,0,1,467.3,102.5c.065,16.361-.509,31.618-.444,47.98-12.21-1.045-24.3.915-34.106,8.921a52.491,52.491,0,0,0-22.97,51.976c2.767,26.879,18.626,49.579,34.566,70.665,7.08,11.144,17.34,20.824,23.111,32.4q.1,79.772.192,159.543c-12.312,13.571-27.659,23.944-44.491,31.344-11.3,5.426-17.044,16.594-21.234,27.6-6.3,14.044-23,18.695-37.4,16.881H208.4c-1.728-12.659,7.213-23.1,18.53-27.823,10.186-2.988-6.156-9.177-9.445-12.778-5.891-2.458-7.835,11.99-12.165,16.215L191.7,550H144.9c1.861-10.185,9.2-18.966,12.439-28.99,14.432-31.133,27.5-64.036,26.731-98.832,2.062-21.715-3.324-42.975-11.013-63.167-11.683-30.625-22.183-63.2-17.772-96.289,2.921-22.664,11.761-44.036,17.19-66.049-21.358,4.13-45.386.709-61.07-15.274-4.42-5.16-15.871-9.492-9.848-17.2,8.845-21.642,16.151-43.885,25.476-65.31,6.338-8.206,14.755-14.334,23.5-19.863-6.02-15.916-12.021-32.166-18.041-48.082Z" transform="translate(-69.85 3.13)"/></g></g></g></svg>