<svg xmlns="http://www.w3.org/2000/svg" viewBox="0 0 35 35"><path fill="#dac27c" d="M17.5,8A17.5,17.5,0,1,0,35,25.5,17.5,17.5,0,0,0,17.5,8Zm0,31.613A14.113,14.113,0,1,1,31.613,25.5,14.127,14.127,0,0,1,17.5,39.613Zm7.452-10.683a26.191,26.191,0,0,1-7.452.924,26.226,26.226,0,0,1-7.452-.924A.969.969,0,0,0,8.8,30.009c.557,3.324,5.031,5.645,8.7,5.645s8.136-2.322,8.7-5.645a.972.972,0,0,0-1.249-1.08ZM8.305,23.785a.574.574,0,0,0,.656-.261l.67-1.2A2.64,2.64,0,0,1,11.855,20.8a2.64,2.64,0,0,1,2.223,1.524l.67,1.2a.559.559,0,0,0,.656.261.565.565,0,0,0,.4-.586c-.233-2.971-2.272-5.038-3.952-5.038S8.136,20.229,7.9,23.2a.571.571,0,0,0,.4.586Zm11.29,0a.574.574,0,0,0,.656-.261l.67-1.2A2.64,2.64,0,0,1,23.145,20.8a2.64,2.64,0,0,1,2.223,1.524l.67,1.2a.559.559,0,0,0,.656.261.565.565,0,0,0,.4-.586c-.233-2.971-2.272-5.038-3.952-5.038s-3.719,2.068-3.952,5.038a.571.571,0,0,0,.4.586Z" transform="translate(0 -8)"/></svg>