<?xml version="1.0" encoding="UTF-8" standalone="no"?>
<svg
   xmlns:dc="http://purl.org/dc/elements/1.1/"
   xmlns:cc="http://creativecommons.org/ns#"
   xmlns:rdf="http://www.w3.org/1999/02/22-rdf-syntax-ns#"
   xmlns:svg="http://www.w3.org/2000/svg"
   xmlns="http://www.w3.org/2000/svg"
   height="57.317425"
   width="286.93399"
   id="svg26"
   version="1.1"
   viewBox="0 0 286.93398 57.317425">
  <metadata
     id="metadata30">
    <rdf:RDF>
      <cc:Work
         rdf:about="">
        <dc:format>image/svg+xml</dc:format>
        <dc:type
           rdf:resource="http://purl.org/dc/dcmitype/StillImage" />
        <dc:title></dc:title>
      </cc:Work>
    </rdf:RDF>
  </metadata>
  <defs
     id="defs4">
    <style
       id="style2">.a,.c{fill:#dac27c;}.a,.b{font-size:30px;letter-spacing:0.01em;}.a{font-family:SegoeUIBlack, Segoe UI;}.b{font-family:SegoeUI-Bold, Segoe UI;font-weight:700;}.d{fill:none;stroke:#dac27c;stroke-width:2px;}</style>
  </defs>
  <g
     id="g24"
     transform="translate(-79.891007,-38.895916)">
    <g
       id="g14"
       transform="translate(32)" />
    <g
       id="g3747">
      <g
         id="text8"
         style="font-size:30px;font-family:SegoeUIBlack, 'Segoe UI';letter-spacing:0.01em;fill:#dac27c"
         transform="translate(171,65)"
         aria-label="GOLDEN CAT">
        <path
           id="path3749"
           d="m 20.463867,-1.3769531 q -1.186523,0.6738281 -3.544922,1.21582029 -2.358398,0.52734375 -4.49707,0.52734375 -5.5224609,0 -8.5253906,-2.75390624 -3.00292971,-2.7685547 -3.00292971,-7.7490237 0,-3.339844 1.50878911,-5.932617 1.5234375,-2.592773 4.2773437,-3.94043 2.7539063,-1.347656 6.4892575,-1.347656 2.739258,0 5.844727,0.776367 v 5.522461 q -1.450195,-0.659179 -2.783203,-0.908203 -1.333008,-0.263672 -2.915039,-0.263672 -2.607422,0 -4.1601566,1.567383 -1.5380859,1.567383 -1.5380859,4.306641 0,2.62207 1.2890625,4.1015622 1.303711,1.4794922 3.632813,1.4794922 1.083984,0 1.596679,-0.1171875 v -3.0029297 h -4.02832 v -4.7900392 h 10.356445 z" />
        <path
           id="path3751"
           d="m 44.142773,-10.561523 q 0,3.1640621 -1.362305,5.6689449 -1.362305,2.4902343 -3.808594,3.8818359 -2.446289,1.37695314 -5.478515,1.37695314 -2.958985,0 -5.390625,-1.33300782 -2.416993,-1.34765622 -3.764649,-3.76464842 -1.347656,-2.4316406 -1.347656,-5.4931637 0,-3.208008 1.362305,-5.771485 1.362304,-2.563476 3.823242,-3.955078 2.460937,-1.40625 5.595703,-1.40625 3.017578,0 5.390625,1.347656 2.387695,1.333008 3.676758,3.823243 1.303711,2.475585 1.303711,5.625 z m -6.708985,0.175781 q 0,-2.592774 -0.996093,-4.086914 -0.996094,-1.494141 -2.72461,-1.494141 -1.889648,0 -2.944336,1.435547 -1.054687,1.435547 -1.054687,4.057617 0,2.5634768 1.040039,3.9990236 1.054687,1.4355469 2.856445,1.4355469 1.098633,0 1.977539,-0.6445312 0.878906,-0.6445313 1.362305,-1.8457032 0.483398,-1.2011719 0.483398,-2.8564451 z" />
        <path
           id="path3753"
           d="m 47.431053,0 v -21.005859 h 6.328125 v 16.0546871 h 7.236328 V 0 Z" />
        <path
           id="path3755"
           d="m 83.766212,-10.766602 q 0,3.1933598 -1.347656,5.6542973 -1.333008,2.4462891 -3.823242,3.7792969 Q 76.10508,0 72.853127,0 h -8.891602 v -21.005859 h 8.701172 q 11.103515,0 11.103515,10.239257 z m -6.723632,0.05859 q 0,-1.538086 -0.629883,-2.768555 -0.615235,-1.230468 -1.772461,-1.904296 -1.157227,-0.673828 -2.724609,-0.673828 H 70.28965 v 11.1035151 h 1.772461 q 2.270508,0 3.618164,-1.5527343 1.362305,-1.5673829 1.362305,-4.2041018 z" />
        <path
           id="path3757"
           d="m 87.054489,0 v -21.005859 h 13.081051 v 4.951172 h -6.752926 v 3.061523 h 6.342774 v 4.9511718 h -6.342774 v 3.0908203 h 7.236326 V 0 Z" />
        <path
           id="path3759"
           d="m 118.61426,0 -7.41211,-10.136719 q -0.87891,-1.201172 -1.43555,-2.167969 h -0.0586 q 0.0879,1.552735 0.0879,3.4863286 V 0 h -5.85938 v -21.005859 h 5.97657 l 7.10449,9.638671 q 0.13183,0.19043 0.32226,0.454102 0.19043,0.263672 0.38086,0.541992 0.19043,0.278321 0.35157,0.5419924 0.17578,0.2636719 0.26367,0.46875 h 0.0586 q -0.0879,-0.6445314 -0.0879,-2.2265624 v -9.418945 h 5.85938 V 0 Z" />
        <path
           id="path3761"
           d="m 152.86172,-0.57128906 q -2.60742,0.9375 -6.0205,0.9375 -3.3545,0 -5.78614,-1.27441407 -2.43164,-1.28906247 -3.7207,-3.64746097 -1.27441,-2.3730468 -1.27441,-5.4638669 0,-3.325196 1.43554,-5.917969 1.43555,-2.592773 4.05762,-3.999023 2.62207,-1.420899 6.03516,-1.420899 2.72461,0 5.27343,0.65918 v 5.844726 q -0.8789,-0.527343 -2.09472,-0.820312 -1.21582,-0.292969 -2.46094,-0.292969 -2.57812,0 -4.07226,1.479492 -1.4795,1.479492 -1.4795,4.013672 0,2.5195314 1.4795,3.9843752 1.49414,1.4501953 3.98437,1.4501953 2.2998,0 4.64355,-1.171875 z" />
        <path
           id="path3763"
           d="m 169.62656,0 -0.92286,-3.8671875 h -6.26953 L 161.43808,0 h -6.84082 l 7.23633,-21.005859 h 7.85156 L 176.49667,0 Z m -3.98438,-16.435547 h -0.14648 q -0.0293,0.351563 -0.20508,1.157227 -0.17578,0.805664 -1.77246,6.9140622 h 4.01367 l -1.46484,-5.7128902 q -0.30762,-1.259766 -0.42481,-2.358399 z" />
        <path
           id="path3765"
           d="M 189.87773,-16.054687 V 0 h -6.35742 v -16.054687 h -5.87402 v -4.951172 H 195.825 v 4.951172 z" />
      </g>
      <g
         id="text12"
         style="font-weight:700;font-size:30px;font-family:SegoeUI-Bold, 'Segoe UI';letter-spacing:0.01em"
         transform="translate(171,92)"
         aria-label="fotobudka">
        <path
           id="path3768"
           d="m 11.733398,-18.662109 q -0.893554,-0.351563 -1.713867,-0.351563 -2.2265623,0 -2.2265623,2.416992 V -15 h 3.4277343 v 3.413086 H 7.7929687 V 0 H 3.1787109 V -11.586914 H 0.65917969 V -15 H 3.1787109 v -1.860352 q 0,-2.563476 1.6699219,-4.130859 1.6699219,-1.567383 4.5410156,-1.567383 1.4062496,0 2.3437496,0.292969 z" />
        <path
           id="path3770"
           d="m 20.881055,0.36621094 q -3.75,0 -5.90332,-2.09472654 -2.138672,-2.109375 -2.138672,-5.7128906 0,-3.7207028 2.226562,-5.8154298 2.226563,-2.109375 6.020508,-2.109375 3.735352,0 5.859375,2.109375 2.124023,2.094727 2.124023,5.5517579 0,3.7353515 -2.197265,5.9033203 -2.182617,2.16796874 -5.991211,2.16796874 z M 20.998242,-11.821289 q -1.640625,0 -2.548828,1.12793 -0.908203,1.1279293 -0.908203,3.193359 0,4.3212891 3.486328,4.3212891 3.325196,0 3.325196,-4.4384766 0,-4.2041015 -3.354493,-4.2041015 z" />
        <path
           id="path3772"
           d="m 41.439844,-0.17578125 q -1.02539,0.54199219 -3.09082,0.54199219 -4.892578,0 -4.892578,-5.08300784 V -11.586914 H 31.024805 V -15 h 2.431641 v -3.237305 l 4.614258,-1.318359 V -15 h 3.36914 v 3.413086 h -3.36914 v 6.0644531 q 0,2.34375 1.860351,2.34375 0.732422,0 1.508789,-0.4248047 z" />
        <path
           id="path3774"
           d="m 51.363869,0.36621094 q -3.75,0 -5.903321,-2.09472654 -2.138671,-2.109375 -2.138671,-5.7128906 0,-3.7207028 2.226562,-5.8154298 2.226563,-2.109375 6.020508,-2.109375 3.735351,0 5.859375,2.109375 2.124023,2.094727 2.124023,5.5517579 0,3.7353515 -2.197265,5.9033203 -2.182618,2.16796874 -5.991211,2.16796874 z M 51.481056,-11.821289 q -1.640625,0 -2.548828,1.12793 -0.908203,1.1279293 -0.908203,3.193359 0,4.3212891 3.486328,4.3212891 3.325195,0 3.325195,-4.4384766 0,-4.2041015 -3.354492,-4.2041015 z" />
        <path
           id="path3776"
           d="M 67.542774,-1.7431641 H 67.48418 V 0 h -4.628906 v -22.207031 h 4.628906 v 9.46289 h 0.05859 q 1.713867,-2.62207 4.87793,-2.62207 2.900391,0 4.467773,1.992188 1.567383,1.992187 1.567383,5.4492183 0,3.75 -1.831055,6.0205078 -1.831054,2.27050784 -4.892578,2.27050784 -2.768554,0 -4.189453,-2.10937504 z m -0.131836,-6.328125 v 1.538086 q 0,1.4501953 0.834961,2.4023437 0.834961,0.9521485 2.138672,0.9521485 1.582031,0 2.446289,-1.2158203 0.878906,-1.2304688 0.878906,-3.4716797 0,-1.8603516 -0.805664,-2.9003911 -0.791015,-1.054687 -2.270507,-1.054687 -1.391602,0 -2.314454,1.040039 -0.908203,1.0400391 -0.908203,2.7099609 z" />
        <path
           id="path3778"
           d="m 96.041016,0 h -4.614258 v -2.2851563 h -0.07324 q -1.713868,2.65136724 -4.584961,2.65136724 -5.214844,0 -5.214844,-6.31347654 V -15 h 4.614258 v 8.6425781 q 0,3.178711 2.519531,3.178711 1.245117,0 1.992187,-0.8642578 0.747071,-0.8789063 0.747071,-2.3730469 V -15 h 4.614258 z" />
        <path
           id="path3780"
           d="m 114.92989,0 h -4.62891 v -2.0654297 h -0.0586 q -1.58204,2.43164064 -4.64356,2.43164064 -2.8125,0 -4.52637,-1.97753904 -1.713863,-1.9921875 -1.713863,-5.5517578 0,-3.7207031 1.889653,-5.9619141 1.88964,-2.241211 4.95117,-2.241211 2.90039,0 4.04297,2.080078 h 0.0586 v -8.920898 h 4.62891 z m -4.54102,-7.2949219 v -1.1279297 q 0,-1.4648437 -0.84961,-2.4316404 -0.84961,-0.966797 -2.21191,-0.966797 -1.53809,0 -2.40235,1.21582 -0.86425,1.2011721 -0.86425,3.3105471 0,1.9775391 0.83496,3.046875 0.83496,1.069336 2.31445,1.069336 1.40625,0 2.28516,-1.1279297 0.89355,-1.1279297 0.89355,-2.9882813 z" />
        <path
           id="path3782"
           d="m 134.15566,0 h -5.55176 l -4.79003,-7.4414062 h -0.0586 V 0 h -4.6289 v -22.207031 h 4.6289 v 14.1357419 h 0.0586 L 128.28164,-15 h 5.49316 l -5.37597,7.0458984 z" />
        <path
           id="path3784"
           d="m 148.66464,0 h -4.37988 v -2.1533203 h -0.0586 q -1.50879,2.51953124 -4.46778,2.51953124 -2.18261,0 -3.44238,-1.23046875 -1.24512,-1.24511719 -1.24512,-3.31054689 0,-4.3652344 5.1709,-5.0390625 l 4.07227,-0.5419922 q 0,-2.4609376 -2.66602,-2.4609376 -2.68066,0 -5.09766,1.59668 v -3.486328 q 0.9668,-0.498047 2.63672,-0.878907 1.68457,-0.380859 3.06153,-0.380859 6.41601,0 6.41601,6.4013672 z m -4.35058,-6.09375 v -1.0107422 l -2.72461,0.3515625 q -2.25586,0.2929688 -2.25586,2.0361328 0,0.7910156 0.54199,1.303711 0.55664,0.4980468 1.49414,0.4980468 1.30371,0 2.12402,-0.8935547 0.82032,-0.9082031 0.82032,-2.2851562 z" />
      </g>
      <g
         transform="translate(-641,-394)"
         id="g22">
        <path
           class="c"
           d="m 103.318,31.3 a 22.149,22.149 0 0 1 8.275,2.256 c 2.768,1.4 5.458,3.552 6.276,6.679 1.351,4.04 0.579,8.485 2.2,12.46 1.553,4.494 4.8,8.073 7.851,11.608 2.372,2.856 4.783,5.792 6.241,9.235 a 11.762,11.762 0 0 1 0.479,2.462 4.9,4.9 0 0 0 2.675,-4.614 c 0.091,-2.238 -1.436,-4.1 -2.571,-5.9 -2.027,-2.966 -4.415,-5.731 -5.752,-9.109 a 12.582,12.582 0 0 1 -1.053,-6.4 11.207,11.207 0 0 1 10.975,-11.018 q 0.01,2.653 0.021,5.306 a 4.937,4.937 0 0 0 -3.69,0.885 5.714,5.714 0 0 0 -2.442,5.619 c 0.294,2.906 1.98,5.36 3.675,7.64 0.753,1.2 1.844,2.251 2.457,3.5 q 0.01,8.624 0.02,17.248 a 13.881,13.881 0 0 1 -4.73,3.389 5.009,5.009 0 0 0 -2.258,2.984 3.688,3.688 0 0 1 -3.977,1.825 h -16.6 a 2.949,2.949 0 0 1 1.97,-3.008 c 1.083,-0.323 -0.655,-0.992 -1,-1.381 -0.626,-0.266 -0.833,1.3 -1.293,1.753 l -1.448,2.657 h -4.976 c 0.2,-1.1 0.978,-2.05 1.323,-3.134 1.534,-3.366 2.924,-6.923 2.842,-10.685 a 15.442,15.442 0 0 0 -1.171,-6.829 c -1.242,-3.311 -2.359,-6.833 -1.89,-10.41 a 65.725,65.725 0 0 1 1.828,-7.14 7.055,7.055 0 0 1 -6.493,-1.651 c -0.47,-0.558 -1.687,-1.026 -1.047,-1.86 0.94,-2.34 1.717,-4.744 2.709,-7.061 a 9.441,9.441 0 0 1 2.5,-2.147 l -1.92,-5.162 z"
           transform="translate(621.038,401.702)"
           id="path16"
           style="fill:#dac27c" />
        <g
           transform="translate(768.478,452.913)"
           id="g20">
          <path
             class="d"
             d="m 126.866,77.395 a 14.468,14.468 0 0 1 5.727,2.235 13.016,13.016 0 0 1 2.027,1.93 8.478,8.478 0 0 1 1.783,3.414 9.77,9.77 0 0 1 -0.792,7.6 10.3,10.3 0 0 1 -6.834,5.169 c -0.584,-0.068 -1.994,0.606 -1.96,-0.215 0.007,-6.584 0.19,-21.748 0.049,-20.133 z m 0,-8.675 a 14.621,14.621 0 0 1 6.682,1.22 17.682,17.682 0 0 1 6.436,4.1 18.532,18.532 0 0 1 5.888,13.267 18.462,18.462 0 0 1 -6.239,14.628 17.634,17.634 0 0 1 -11.127,4.966 c -0.727,-0.085 -2.059,0.446 -1.7,-0.75 q 0.021,-18.72 0.056,-37.43 z m -0.008,-4.433 q -0.01,-4.171 -0.021,-8.342 c 3.016,0.048 6.045,-0.039 9.052,0.093 1.752,0.538 2.769,2.251 4.11,3.4 1.369,1.412 2.851,2.747 4.15,4.207 a 1.1,1.1 0 0 1 0.115,0.685 m -17.406,-0.041 c 9.03,0.047 18.069,0.016 27.093,0.112 a 8.986,8.986 0 0 1 4.953,2.649 8.789,8.789 0 0 1 2.273,5.338 c -0.01,10.424 0.047,20.852 0.009,31.274 a 9.227,9.227 0 0 1 -2.31,4.782 8.531,8.531 0 0 1 -6.654,2.688 l -25.443,0.11 0.079,-46.954 z"
             transform="translate(-131.748,-74.946)"
             id="path18"
             style="fill:none;stroke:#dac27c;stroke-width:2px" />
        </g>
      </g>
    </g>
  </g>
</svg>
